<?xml version="1.0" encoding="iso-8859-1"?>
<!-- Generator: Adobe Illustrator 27.0.0, SVG Export Plug-In . SVG Version: 6.00 Build 0)  -->
<svg version="1.1" id="Layer_1" xmlns="http://www.w3.org/2000/svg" xmlns:xlink="http://www.w3.org/1999/xlink" x="0px" y="0px"
	 viewBox="0 0 500 500" style="enable-background:new 0 0 500 500;" xml:space="preserve">
<g>
	<path style="fill-rule:evenodd;clip-rule:evenodd;fill:#231F20;" d="M239.999,243.139c-0.095-5.097,5.076-12.88,8.058-15.261
		c4.819-1.686,9.569,7.801,10.963,11.296c1.416,3.551-0.319,6.45-3.454,6.899c-3.488,0.499-4.258-2.191-5.931-3.666
		C245.951,247.243,243.647,247.563,239.999,243.139L239.999,243.139z M303.199,227.853c1.315-3.404-0.901-3.249-4.147-3.865
		l-23.017-4.587c-14.069-3.045-21.063-2.481-18.919-17.491c-3.717,4.748-8.128,21.397,10.588,28.537
		c16.577,6.324,22.007-2.386,25.751-3.136c2.053-0.412,5.681,1.587,8.121,1.24C304.162,228.183,302.376,228.327,303.199,227.853
		L303.199,227.853z M200.173,228.19c8.022-1.73,3.551-0.886,11.648,2.712c7.246,3.221,12.238,2.075,19.059-0.439
		c5.318-1.96,10.311-4.892,12.359-9.809c2.458-5.899,0.974-14.849-1.84-19.243c2.273,14.571-2.753,14.602-18.291,17.895
		l-23.055,4.608c-3.361,0.676-6.236,0.529-4.618,3.9C195.787,228.04,194.718,229.367,200.173,228.19L200.173,228.19z
		 M190.184,212.502c3.2-1.259,7.776-4.553,10.868-6.133l-13.963,10.035c-3.257,2.341-4.209,2.761-2.503,7.317
		c0.858,2.294,2.374,4.042,3.795,5.698c2.246,2.618,6.211,4.101,8.326,7.333c-0.1,10.325-13.529,7.909-10.834,16.535
		c7.095,0.859,17.49-7.405,23.504-1.983c1.042,7.09-6.995,7.584-5.867,15.938c3.462,7.533,27.563-11.107,46.121-11.149
		c9.554-0.022,15.807,2.371,23.408,5.771c6.467,2.893,14.199,7.684,22.209,6.586c2.372-2.096,0.693-5.812-1.08-8.323
		c-2.255-3.194-4.308-3.837-4.228-8.973l1.893-1.797c8.701-1.546,16.65,4.247,21.966,2.999c0.072-5.146-2.789-4.884-6.534-7.399
		c-11.289-7.58,0.454-12.816,3.492-15.708c13.003-12.376-2.19-12.044-11.924-22.921c3.136,1.917,6.851,4.977,10.397,6.518
		c-2.2-31.89-26.924-62.081-59.596-62.023C216.967,150.881,192.837,180.671,190.184,212.502z"/>
	<path style="fill-rule:evenodd;clip-rule:evenodd;fill:#231F20;" d="M312.988,210.881l0.404,4.462
		c6.945,3.393,4.324,9.821-0.006,14.478l-8.162,7.624c0.878,4.477,4.665,5.427,8.073,7.716c4.074,2.737,5.056,6.945,1.474,10.262
		c-5.333,1.149-5.774-1.009-9.943-1.028c0.937,0.277,12.771,7.994,14.848,9.277c16.122,9.961,36.262,19.36,56.049,20.693
		c16.127,1.086,45.253-5.391,52.173-23.859c6.501-17.348-8.025-41.956-18.891-53.552c-2.225-2.374-3.439-4.534-5.765-6.703
		l-13.247-12.385c-1.979-1.957-9.971-8.452-12.997-12.665c-5.651-7.869-9.938-11.252-13.518-24.58
		c-4.407-16.404,0.743-27.668,7.408-40.565c-4.911,1.908-14.642,14.053-17.672,19.626c-22.934,42.178,49.753,79.896,34.813,103.426
		c-5.318,8.376-20.066,9.966-29.197,8.274c-11.065-2.05-18.342-7.12-25.256-12.358C327.798,224.648,316.009,212.383,312.988,210.881
		z"/>
	<path style="fill-rule:evenodd;clip-rule:evenodd;fill:#231F20;" d="M70.548,250.611c0.01,14.471,9.121,22.253,19.142,26.913
		c37.455,17.418,73.129-1.95,102.992-21.534c-0.002,0-14.435,3.182-9.762-7.678c2.534-5.889,9.583-4.432,11.18-11.045
		c-5.152-3.478-12.839-9.837-12.234-17.098c0.475-5.711,6.008-3.385,4.018-8.56l-19.841,17.763
		c-6.186,5.029-15.215,10.464-25.208,12.083c-24.951,4.043-41.319-10.66-22.065-35.798c9.952-12.993,23.454-25.789,29.922-44.854
		c3.631-10.704,3.243-21.313-1.598-30.801c-3.913-7.668-11.925-16.281-17.879-19.943c5.335,12.512,12.877,22.326,6.731,42.77
		c-4.62,15.368-15.473,26.523-25.559,34.74c-1.379,1.124-2.218,2.19-3.623,3.329C91.512,203.261,70.535,229.932,70.548,250.611z"/>
	<path style="fill-rule:evenodd;clip-rule:evenodd;fill:#231F20;" d="M72.242,345.012c5.286,0.01,11.046,0.864,10.022,7.117
		c-0.831,5.072-4.768,7.893-3.936,14.218c1.155,8.776,11.994,16.956,21.627,10.384c12.022-8.202,4.088-21.543,3.265-27.006
		c-1.101-7.301,3.224-7.749,7.714-10.548l55.35-34.027c7.801-4.813,14.948-8.905,22.41-13.617
		c7.191-4.54,15.017-8.714,21.896-13.446l0.096-6.567c-9.612,0.721-8.173-1.574-10.906-4.755L98.567,328.899
		c-4.73,2.993-8.129-0.428-10.98-2.831c-2.919-2.461-4.614-5.322-8.663-7.31c-13.768-6.763-28.268,7.603-17.822,21.288
		C63.731,343.488,66.242,345,72.242,345.012z"/>
	<path style="fill-rule:evenodd;clip-rule:evenodd;fill:#231F20;" d="M393.711,342.116c7.915,5.5-3.364,16.084,0.428,27.334
		c5.447,16.163,28.662,9.744,27.361-5.91c-0.425-5.105-4.81-8.381-4.13-13.085c1.392-9.63,16.209-0.109,22.843-12.519
		c5.067-9.48-0.146-19.235-9.865-20.725c-12.082-1.853-15.345,8.82-22.229,12.188c-4.899,2.397-8.336-1.523-11.866-3.681
		l-32.28-19.675c-19.075-11.473-46.451-29.31-64.446-39.359c-3.181,5.137-2.533,3.997-9.643,4.599
		c0.285,9.385-0.241,7.219,6.725,11.329l32.229,19.767c14.188,8.913,28.867,17.213,43.012,26.306
		C378.997,333.277,386.946,337.414,393.711,342.116z"/>
	<path style="fill-rule:evenodd;clip-rule:evenodd;fill:#231F20;" d="M206.586,332.378c1.549,1.863,15.396,10.478,19.451,13.912
		c1.505,1.274,1.85,1.876,3.225,3.004c2.785,2.284,3.836,4.422,6.513,6.469c4.583-1.716,6.761-5.829,14.558-5.697
		c6.19,0.106,10.076,3.695,13.853,5.684c3.734-3.991,9.056-9.256,13.751-12.398l14.061-9.499c2.187-1.561,0.334-0.012,1.504-1.474
		c-1.157-2.96-2.696-3.529-4.101-7.181c-3.939-10.237,2.05-8.889-10.701-10.661c-3.202-0.445-6.121-0.757-9.319-1.156
		c-15.089-1.882-43.768-1.639-56.091,2.765c-0.534,3.291-1.447,6.542-2.57,9.24C209.353,328.667,207.803,329.572,206.586,332.378z"
		/>
	<path style="fill-rule:evenodd;clip-rule:evenodd;fill:#231F20;" d="M120.203,173.818c1.969-3.742,5.857-7.07,7.869-11.903
		c-1.836-1.927-18.23-11.516-21.554-13.516c-4.965-2.988-4.378-6.24-2.278-12.751c1.603-4.967,3.258-9.408,1.161-15.165
		c-3.311-9.089-14.692-12.825-22.556-5.492c-11.932,11.127,2.865,20.593-1.689,27.417c-4.315,6.466-18.2-2.762-22.957,12.351
		c-3.615,11.485,5.646,20.013,16.364,17.896c9.835-1.943,15.357-15.65,22.666-12.166
		C102.947,163.213,115.018,172.699,120.203,173.818z"/>
	<path style="fill-rule:evenodd;clip-rule:evenodd;fill:#231F20;" d="M371.994,161.914c1.877,4.183,5.794,9.7,8.607,11.84
		c3.162-1.421,7.789-4.501,10.95-6.447c3.198-1.969,8.046-5.51,11.079-6.894c7.545-3.443,12.633,10.17,22.55,12.188
		c10.926,2.222,20.193-6.759,16.479-17.686c-5.154-15.164-19.154-6.424-23.154-12.906c-4.859-7.873,10.879-13.962-1.228-26.464
		c-8.918-9.209-19.459-2.917-22.361,3.877c-5.091,11.921,7.092,22.991-0.705,28.379l-21.061,12.915c-0.125,0.1-0.3,0.252-0.41,0.349
		L371.994,161.914z"/>
	<path style="fill-rule:evenodd;clip-rule:evenodd;fill:#231F20;" d="M242.338,147.081c4.723,0.357,10.441-0.638,14.661,0.474
		c1.995-6.449-0.213-17.421,0.929-25.376c1.93-1.457,1.486-1.685,3.988-2.732c1.676-0.701,3.854-1.261,5.8-1.744
		c4.417-1.096,7.928-2.065,10.69-4.608c16.549-15.237-7.706-34.456-19.786-19.792c-2.03,2.464-3.821,6.77-6.657,7.94
		c-8.351,3.446-7.648-8.772-16.755-12.195c-11.792-4.433-25.675,8.679-16.502,21.334c5.779,7.974,11.531,4.96,20.063,9.739
		c4.485,2.512,3.548,6.1,3.546,11.997C242.314,137.082,242.223,142.129,242.338,147.081z"/>
	<path style="fill-rule:evenodd;clip-rule:evenodd;fill:#231F20;" d="M242.434,356.359c-0.418,5.038-0.094,11.063-0.098,16.214
		c-0.009,11.475-10.961,7.782-19.559,13.333c-11.414,7.368-8.52,26.357,8.164,26.023c12.611-0.252,10.851-13.271,18.696-13.332
		c7.682-0.059,6.587,13.185,19.389,13.332c9.122,0.105,17.025-6.557,14.396-16.945c-2.521-9.96-9.54-10.401-19.28-13.335
		c-9.58-2.885-5.959-7.319-6.706-25.019C253.152,352.798,247.32,353.405,242.434,356.359z"/>
	<path style="fill-rule:evenodd;clip-rule:evenodd;fill:#231F20;" d="M151.294,292.235c8.361-5.064,10.39-5.242,14.056-16.169
		c-4.383,1.481-8.917,3.923-13.525,5.636c-21.034,7.816-27.482,6.244-47.776,4.304c-9.707,10.772-24.604,16.195-38.865,19.359
		c5.449,9.258,11.625,8.238,15.512,10.23c6.016,3.084,9.092,8.955,14.413,10.919L151.294,292.235z"/>
	<path style="fill-rule:evenodd;clip-rule:evenodd;fill:#231F20;" d="M334.724,276.058c0.515,1.774,3.759,9.221,5.003,10.584
		l65.127,39.902c5.104-1.352,8.437-8.187,14.365-10.998c3.517-1.668,10.873-1.167,15.669-10.286
		c-9.039-1.52-17.762-4.507-24.827-8.574c-17.76-10.225-8.257-11.289-21.157-9.568c-10.091,1.347-20.573,0.561-29.736-1.905
		C346.861,281.901,340.985,277.955,334.724,276.058z"/>
	<path style="fill-rule:evenodd;clip-rule:evenodd;fill:#231F20;" d="M67.446,257.518c-0.066-6.282-0.55-8.626,0.422-15.058
		c-12.36-1.148-9.389,1.755-14.309-14.741c-1.932-6.479-8.303-13.071-17.071-11.573c-7.686,1.313-12.791,8.503-10.974,17.549
		c1.806,8.992,12.353,9.368,13.113,15.729c0.841,7.05-10.239,7.05-12.836,15.659c-5.697,18.887,21.042,26.42,27.41,8.088
		C58.182,258.83,54.863,257.239,67.446,257.518z"/>
	<path style="fill-rule:evenodd;clip-rule:evenodd;fill:#231F20;" d="M432.33,242.287l0.561,15.128
		c10.887,0.344,8.888-0.825,13.621,14.646c5.792,18.932,32.069,13.333,28.05-6.014c-2.014-9.696-13.216-8.671-13.079-16.13
		c0.12-6.565,10.738-7.134,12.957-15.615c2.388-9.123-3.204-16.597-10.361-18.032c-17.066-3.423-18.44,17.635-20.713,22.264
		C441.224,242.9,437.676,242.337,432.33,242.287z"/>
	<path style="fill-rule:evenodd;clip-rule:evenodd;fill:#231F20;" d="M322.218,214.805c1.75,1.176,2.929,2.151,4.629,3.622
		c1.632,1.412,2.876,2.962,4.641,4.354c10.335,8.152,19.812,16.221,35.651,15.692c-0.031-2.228-7.832-27.658-9.027-45.795
		c-2.566,0.196-22.821,13.566-27.073,16l-6.459,3.914c-0.474,0.303-0.89,0.473-1.276,0.822
		C322.24,214.377,323.059,213.549,322.218,214.805z"/>
	<path style="fill-rule:evenodd;clip-rule:evenodd;fill:#231F20;" d="M132.832,238.54c23.997-0.312,32.801-14.917,44.928-23.683
		c-1.636-2.208-1.544-1.666-4.132-3.277c-1.802-1.123-3.145-1.87-4.778-2.848c-4.603-2.756-24.526-15.77-26.896-15.931
		C140.636,214.446,135.714,222.526,132.832,238.54z"/>
	<path style="fill-rule:evenodd;clip-rule:evenodd;fill:#231F20;" d="M148.749,170.326l41.031,24.697
		c2.97-7.484,6.368-20.018,6.83-28.949l-46.065,0.064L148.749,170.326z"/>
	<path style="fill-rule:evenodd;clip-rule:evenodd;fill:#231F20;" d="M309.92,194.865l20.563-12.387
		c3.627-2.288,6.57-3.978,10.307-6.301l10.301-6.64l-1.511-3.405l-46.109-0.001C303.653,171.117,307.764,192.274,309.92,194.865z"/>
	<path style="fill-rule:evenodd;clip-rule:evenodd;fill:#231F20;" d="M310.931,198.394c0.432,4.931,0.513,5.164,3.205,7.806
		c1.783,1.75,3.215,3.712,5.485,5.038c8.636-4.549,35.037-22.166,41.111-24.764l-7.776-13.295l-30.979,18.811
		C318.829,193.949,313.876,197.42,310.931,198.394z"/>
	<path style="fill-rule:evenodd;clip-rule:evenodd;fill:#231F20;" d="M139.46,186.168l40.881,25.125
		c2.15-1.156,4.009-3.289,5.61-4.983c2.033-2.15,2.101-4.08,2.796-7.844c-4.377-1.624-36.768-23.067-41.667-24.95L139.46,186.168z"
		/>
	<path style="fill-rule:evenodd;clip-rule:evenodd;fill:#231F20;" d="M251.688,308.056l16.259,1.331l-0.401-22.565
		c-4.964-0.754-10.601-1.624-15.728-1.123L251.688,308.056z"/>
	<path style="fill-rule:evenodd;clip-rule:evenodd;fill:#231F20;" d="M251.898,281.41l16.054,1.337l-0.026-21.121
		c-4.795-1.313-10.218-3.71-15.878-3.112L251.898,281.41z"/>
	<polygon style="fill-rule:evenodd;clip-rule:evenodd;fill:#231F20;" points="247.696,308.177 247.924,285.313 232.817,286.812 
		232.73,309.199 	"/>
	<path style="fill-rule:evenodd;clip-rule:evenodd;fill:#231F20;" d="M232.864,261.594l-0.119,21.209l15.043-1.47l0.378-22.916
		C241.433,258.413,238.157,260.448,232.864,261.594z"/>
	<path style="fill-rule:evenodd;clip-rule:evenodd;fill:#231F20;" d="M271.855,304.664c-0.006,0.757-0.077,2.123-0.027,2.81
		c0.126,1.717-0.099-0.431,0.172,1.23c0.022,0.135,0.167,0.6,0.187,0.511c0.019-0.084,0.155,0.312,0.211,0.589l14.658,1.934
		l-0.74-17.472c-2.768-2.634-10.01-5.613-14.368-6.201L271.855,304.664z"/>
	<path style="fill-rule:evenodd;clip-rule:evenodd;fill:#231F20;" d="M228.789,309.617l-0.087-21.492
		c-4.676,0.552-11.373,3.384-14.476,6.136l-0.519,17.471L228.789,309.617z"/>
	<polygon style="fill-rule:evenodd;clip-rule:evenodd;fill:#231F20;" points="271.849,283.82 286.488,288.985 285.902,269.724 
		272.067,263.865 	"/>
	<path style="fill-rule:evenodd;clip-rule:evenodd;fill:#231F20;" d="M214.973,270.131l-0.721,18.907
		c4.944-1.489,8.942-3.678,14.564-5.237l-0.055-19.825L214.973,270.131z"/>
	<path style="fill-rule:evenodd;clip-rule:evenodd;fill:#231F20;" d="M296.061,257.388l6.624,0.028
		c-2.294-2.091-6.153-5.527-9.954-5.286C293.175,255.315,294.073,255.709,296.061,257.388z"/>
	<path style="fill-rule:evenodd;clip-rule:evenodd;fill:#231F20;" d="M197.557,257.442c5.214,0.014,6.811,1.075,9.202-4.78
		C203.172,252.589,199.477,254.516,197.557,257.442z"/>
</g>
</svg>
